<?xml version="1.0" encoding="UTF-8"?>
<svg version="1.1" xmlns="http://www.w3.org/2000/svg" width="244" height="224">
<path d="M0 0 C2.5793457 1.32836914 2.5793457 1.32836914 5.17578125 3.03515625 C6.15611328 3.67171143 7.13644531 4.3082666 8.14648438 4.96411133 C9.19126953 5.65657959 10.23605469 6.34904785 11.3125 7.0625 C12.98495803 8.15257546 14.65742661 9.24263518 16.33053589 10.33171082 C18.06687844 11.46361863 19.80040781 12.599743 21.53369141 13.73632812 C26.99203673 17.30906325 32.49937972 20.80537892 38 24.3125 C44.90878309 28.73019151 51.808172 33.16158687 58.6875 37.625 C65.27803457 41.89631112 71.88314213 46.144577 78.5 50.375 C79.40838623 50.95846191 80.31677246 51.54192383 81.25268555 52.14306641 C82.12836182 52.70171387 83.00403809 53.26036133 83.90625 53.8359375 C84.67259766 54.32626465 85.43894531 54.8165918 86.22851562 55.32177734 C90.09040977 57.66027808 94.04288545 59.82758163 98 62 C97.99000725 60.94550407 97.99000725 60.94550407 97.97981262 59.8697052 C97.91962222 53.23432499 97.87398546 46.59902132 97.84456348 39.96342945 C97.82892861 36.55224239 97.80773086 33.14128151 97.77368164 29.73022461 C97.73475509 25.80585466 97.7202727 21.88157529 97.70703125 17.95703125 C97.69154739 16.73603226 97.67606354 15.51503326 97.66011047 14.2570343 C97.65977058 12.54582649 97.65977058 12.54582649 97.65942383 10.80004883 C97.64943108 9.2978051 97.64943108 9.2978051 97.63923645 7.76521301 C98.06650109 4.49027646 99.02408268 2.6296547 101 0 C104.90849746 -1.60175824 106.73312142 -1.52313308 110.63574219 0.08837891 C113.78181122 1.73193421 116.8272019 3.49320394 119.875 5.3125 C120.98979736 5.95823975 122.10459473 6.60397949 123.25317383 7.26928711 C126.51259218 9.16228504 129.75719573 11.07872285 133 13 C134.54722503 13.90267551 136.09527596 14.80393848 137.64453125 15.703125 C141.00865327 17.66145215 144.35668687 19.64557413 147.70117188 21.63720703 C150.41481738 23.24591234 153.13687339 24.8399236 155.859375 26.43359375 C157.88542362 27.62238398 159.91146535 28.81118596 161.9375 30 C163.38805786 30.84703491 163.38805786 30.84703491 164.86791992 31.71118164 C165.76615479 32.2396167 166.66438965 32.76805176 167.58984375 33.3125 C168.39284912 33.78300781 169.19585449 34.25351562 170.02319336 34.73828125 C172 36 172 36 174 38 C174.25726891 40.54629326 174.25726891 40.54629326 174.26742554 43.83224487 C174.28022049 45.69564011 174.28022049 45.69564011 174.29327393 47.59667969 C174.29257484 48.98095716 174.29165174 50.36523453 174.29052734 51.74951172 C174.29650901 53.20142972 174.30331372 54.65334453 174.31088257 56.10525513 C174.32858761 60.05570943 174.33323986 64.00607715 174.33451414 67.95656729 C174.33641068 71.25184522 174.34376545 74.54710287 174.35085833 77.84237301 C174.36715733 85.61611716 174.37202594 93.38981496 174.37060547 101.16357422 C174.36940392 109.18774263 174.39050478 117.21164211 174.4220928 125.23574245 C174.44822938 132.11987765 174.45897386 139.00392488 174.45769465 145.88810933 C174.4571842 150.00190684 174.46291265 154.11546552 174.48405075 158.22921371 C174.50338909 162.0985404 174.50358825 165.9673994 174.48901749 169.8367424 C174.4869227 171.25734641 174.49167012 172.67797934 174.5037384 174.09853363 C174.51913969 176.03689297 174.50750698 177.97541111 174.49447632 179.91378784 C174.49556585 180.99890593 174.49665539 182.08402401 174.49777794 183.20202446 C173.87745429 186.688821 172.71643205 187.80259165 170 190 C168.16984658 191.1805841 166.29752589 192.2971182 164.3984375 193.36328125 C163.28009521 193.9960498 162.16175293 194.62881836 161.00952148 195.28076172 C159.79802503 195.95802697 158.58651762 196.63527261 157.375 197.3125 C156.12985853 198.01502408 154.88515375 198.71832266 153.64086914 199.42236328 C151.71439998 200.51225339 149.78766544 201.60164268 147.85957336 202.68865967 C141.02724543 206.54093364 134.23033203 210.45361777 127.4375 214.375 C126.3326123 215.01091064 125.22772461 215.64682129 124.08935547 216.30200195 C123.0685791 216.89070068 122.04780273 217.47939941 120.99609375 218.0859375 C120.10075928 218.6020459 119.2054248 219.1181543 118.28295898 219.64990234 C116.48811936 220.71133568 114.73499745 221.84333503 113 223 C105.25363824 224.12736467 100.94929844 221.03114445 94.6875 216.75 C92.72691153 215.45520051 90.76596787 214.16093871 88.8046875 212.8671875 C87.82854492 212.21459961 86.85240234 211.56201172 85.84667969 210.88964844 C81.71340825 208.14595024 77.51643603 205.50857873 73.3125 202.875 C71.75620216 201.89371788 70.20021171 200.91194809 68.64453125 199.9296875 C67.87963379 199.44725586 67.11473633 198.96482422 66.32666016 198.46777344 C61.5926009 195.48129241 56.86061956 192.49151882 52.12866211 189.50170898 C48.14746642 186.98655755 44.16493727 184.47356735 40.1796875 181.96484375 C38.57803993 180.95586419 36.97647688 179.94675047 35.375 178.9375 C34.59769531 178.44789795 33.82039063 177.9582959 33.01953125 177.45385742 C29.03960536 174.94107241 25.07548758 172.4068341 21.1328125 169.8359375 C20.35373535 169.32812744 19.5746582 168.82031738 18.77197266 168.29711914 C17.29302421 167.33070118 15.81602707 166.36128827 14.34130859 165.38842773 C11.5824697 163.58415654 9.14208293 162.04736098 6 161 C6.00999275 162.07661896 6.00999275 162.07661896 6.02018738 163.17498779 C6.08032904 169.94311705 6.12598994 176.7112063 6.15543652 183.47953415 C6.1710844 186.95912843 6.19230607 190.43850168 6.22631836 193.91796875 C6.26518654 197.91929227 6.27971639 201.92038406 6.29296875 205.921875 C6.30845261 207.16990906 6.32393646 208.41794312 6.33988953 209.70379639 C6.34011612 210.86469788 6.34034271 212.02559937 6.34057617 213.22167969 C6.35056892 214.75390167 6.35056892 214.75390167 6.36076355 216.31707764 C5.94140445 219.43576272 5.22385152 220.7944367 3 223 C-4.91797103 224.51716225 -10.29862032 220.46928515 -16.875 216.4375 C-18.5953573 215.41244916 -20.31573278 214.38742745 -22.03715515 213.36416626 C-23.82579539 212.29834356 -25.60998791 211.2253317 -27.39404297 210.15185547 C-30.93734258 208.02779392 -34.51143744 205.96073634 -38.09765625 203.91015625 C-38.96275818 203.41508827 -38.96275818 203.41508827 -39.84533691 202.91001892 C-41.54241446 201.93947009 -43.2399531 200.96972767 -44.9375 200 C-67.11301945 187.33047082 -67.11301945 187.33047082 -70 183 C-70.26285553 180.36468697 -70.26285553 180.36468697 -70.28088379 177.13015747 C-70.29230408 175.90479279 -70.30372437 174.6794281 -70.31549072 173.41693115 C-70.31798139 172.0567631 -70.32023159 170.69659459 -70.32226562 169.33642578 C-70.33152305 167.9056853 -70.34157251 166.47494976 -70.35235596 165.04421997 C-70.37859616 161.15575804 -70.39149197 157.26736516 -70.40037727 153.37882853 C-70.4062394 150.94970552 -70.41444908 148.52060139 -70.42338562 146.09148788 C-70.45073211 138.49197798 -70.47006764 130.89251121 -70.4777894 123.29295552 C-70.48675355 114.51884613 -70.52186295 105.74535948 -70.57979059 96.97143948 C-70.62301003 90.19002762 -70.64319712 83.40879106 -70.64587164 76.62724292 C-70.64796862 72.57643822 -70.65980032 68.52621901 -70.69551086 64.47555923 C-70.72845024 60.66515093 -70.7327966 56.85576888 -70.71523285 53.04526901 C-70.71369083 51.64763898 -70.72239535 50.24995404 -70.74214935 48.85246277 C-70.88250324 38.30373052 -70.88250324 38.30373052 -68.70985031 35.09404945 C-67.12139893 33.73651123 -67.12139893 33.73651123 -64 32 C-63.12375977 31.43684082 -62.24751953 30.87368164 -61.34472656 30.29345703 C-60.00619629 29.53331299 -60.00619629 29.53331299 -58.640625 28.7578125 C-57.61936523 28.17354492 -56.59810547 27.58927734 -55.54589844 26.98730469 C-54.45825195 26.37274414 -53.37060547 25.75818359 -52.25 25.125 C-50.52097436 24.13860343 -48.79195481 23.15219598 -47.06329346 22.16516113 C-45.86872321 21.48361333 -44.67369003 20.80287632 -43.47821045 20.1229248 C-39.21383977 17.69747182 -34.96275026 15.24996776 -30.71875 12.7890625 C-29.83663849 12.27794418 -29.83663849 12.27794418 -28.93670654 11.75650024 C-26.10849685 10.11763506 -23.28093479 8.47766421 -20.45410156 6.83642578 C-19.4328418 6.24587402 -18.41158203 5.65532227 -17.359375 5.046875 C-16.46702148 4.52963867 -15.57466797 4.01240234 -14.65527344 3.47949219 C-13.7790332 2.99125977 -12.90279297 2.50302734 -12 2 C-11.02321289 1.4215332 -10.04642578 0.84306641 -9.04003906 0.24707031 C-5.39492596 -1.24821059 -3.74567455 -1.11436687 0 0 Z M-20.5234375 24 C-21.62179932 24.63663574 -22.72016113 25.27327148 -23.85180664 25.92919922 C-25.02637301 26.61917925 -26.20076806 27.30945098 -27.375 28 C-28.56155293 28.69193722 -29.74832053 29.38350647 -30.93530273 30.07470703 C-43.62687396 36.61992222 -43.62687396 36.61992222 -55 45 C-55.09588124 46.55620396 -55.12188033 48.11676454 -55.12025452 49.67591858 C-55.12162918 50.68699173 -55.12300385 51.69806488 -55.12442017 52.73977661 C-55.12082489 53.85826996 -55.11722961 54.97676331 -55.11352539 56.12915039 C-55.11367142 57.29972488 -55.11381744 58.47029938 -55.1139679 59.67634583 C-55.11338895 62.89520943 -55.10835991 66.11403004 -55.10139394 69.33288503 C-55.09515957 72.693474 -55.09455654 76.05406373 -55.09336853 79.41465759 C-55.09025546 85.78242342 -55.0820424 92.15017216 -55.07201904 98.51793045 C-55.06085715 105.76569729 -55.05534726 113.01346493 -55.05032361 120.26123822 C-55.03985977 135.17416835 -55.0222608 150.08708247 -55 165 C-52.0757937 166.34268326 -52.0757937 166.34268326 -49.6184082 164.98706055 C-48.68859131 164.45894775 -47.75877441 163.93083496 -46.80078125 163.38671875 C-45.24423828 162.51019653 -45.24423828 162.51019653 -43.65625 161.6159668 C-42.5528125 160.97957275 -41.449375 160.34317871 -40.3125 159.6875 C-39.19230469 159.05046143 -38.07210937 158.41342285 -36.91796875 157.75708008 C-22.71001436 150.45246327 -22.71001436 150.45246327 -10 141 C-9.896973 138.06373059 -9.86062354 135.15167416 -9.8671875 132.21484375 C-9.86582291 131.27945267 -9.86445831 130.34406158 -9.86305237 129.38032532 C-9.86098876 126.23268353 -9.86744799 123.08513263 -9.875 119.9375 C-9.87621857 118.85730591 -9.87743713 117.77711182 -9.87869263 116.66418457 C-9.90404924 97.24066082 -10.11915017 77.82011351 -10.40616608 58.39894485 C-10.43747484 56.25172564 -10.4672716 54.10448972 -10.49676514 51.95724487 C-10.55289175 47.9140939 -10.61757561 43.87112672 -10.68359375 39.828125 C-10.70031631 38.61772049 -10.71703888 37.40731598 -10.73426819 36.16023254 C-10.75420334 35.03904526 -10.77413849 33.91785797 -10.79467773 32.76269531 C-10.81022202 31.7898761 -10.8257663 30.81705688 -10.84178162 29.8147583 C-11.01016836 26.81910149 -11.45583841 23.94866827 -12 21 C-15.73326952 21 -17.30644193 22.12494518 -20.5234375 24 Z M114 21 C112.33119385 24.33761231 113.00371629 28.06759523 113.12109375 31.7265625 C113.14470474 32.58937836 113.16831573 33.45219421 113.19264221 34.34115601 C113.26934297 37.10260206 113.35333962 39.86377218 113.4375 42.625 C113.49071427 44.49477807 113.54345471 46.36456969 113.59570312 48.234375 C113.72496679 52.82309209 113.86077504 57.41157477 114 62 C118.40302316 62 119.85453652 61.23677001 123.61328125 59.11328125 C124.69673828 58.50419922 125.78019531 57.89511719 126.89648438 57.26757812 C128.02376953 56.62240234 129.15105469 55.97722656 130.3125 55.3125 C131.42818359 54.68666016 132.54386719 54.06082031 133.69335938 53.41601562 C139.36076388 50.20773388 144.80046273 46.92403751 150 43 C148.67409571 39.02228713 147.07351339 38.60733522 143.4609375 36.56640625 C142.32269531 35.91736328 141.18445313 35.26832031 140.01171875 34.59960938 C138.79960491 33.92034849 137.5873643 33.24131376 136.375 32.5625 C135.18572185 31.88820876 133.99691405 31.21308723 132.80859375 30.53710938 C130.53894416 29.24910238 128.26658657 27.96585252 125.99121094 26.68798828 C123.57521225 25.32460149 121.17956803 23.93450758 118.7890625 22.52734375 C116.23761489 20.83989513 116.23761489 20.83989513 114 21 Z M4 22 C2.65516648 23.11626374 2.65516648 23.11626374 2.91098022 25.98431396 C2.92287747 27.34083574 2.9405184 28.69731351 2.96240234 30.05371094 C2.97040359 30.79421692 2.97840485 31.5347229 2.98664856 32.29766846 C3.01476953 34.77665775 3.0502621 37.25548372 3.0859375 39.734375 C3.10775533 41.48276324 3.12920262 43.23115613 3.15029907 44.97955322 C3.19601379 48.67880012 3.24516483 52.37798058 3.296875 56.07714844 C3.34875812 59.79456184 3.39748421 63.51198784 3.44238281 67.22949219 C3.45319854 68.12478858 3.46401426 69.02008497 3.47515774 69.94251156 C3.49695093 71.74839726 3.51872327 73.55428321 3.54047489 75.36016941 C3.59669802 79.8751458 3.66201021 84.3897125 3.74497986 88.90428162 C3.77787024 90.70498569 3.81071238 92.50569064 3.84350586 94.30639648 C3.85979758 95.19140807 3.87608931 96.07641966 3.89287472 96.98824978 C3.98266832 102.34281304 3.99958449 107.69189651 3.95672607 113.04700279 C3.9346537 116.45974767 3.94726162 119.87188772 3.96530533 123.28462982 C3.96500172 124.87797401 3.9487428 126.47140887 3.91518784 128.06439972 C3.57548838 136.8262188 3.57548838 136.8262188 6.91114807 144.67749023 C10.80056644 148.17926282 15.02534644 150.77648455 19.97265625 152.5234375 C26.23990582 154.98257144 31.54071568 158.33848536 37.125 162.0625 C38.96483805 163.24236093 40.80726916 164.41818867 42.65234375 165.58984375 C43.99401611 166.44618408 43.99401611 166.44618408 45.36279297 167.31982422 C51.77712986 171.40642545 58.21395674 175.45754707 64.64697266 179.51464844 C67.08235636 181.05198756 69.51598793 182.59206842 71.94921875 184.1328125 C75.90704362 186.63891501 79.8696875 189.13725132 83.83447266 191.63232422 C85.89859675 192.93595704 87.95568177 194.25006934 90.01171875 195.56640625 C91.19510471 196.31543255 92.37868418 197.06415327 93.5625 197.8125 C95.08037109 198.78123047 95.08037109 198.78123047 96.62890625 199.76953125 C97.41136719 200.17558594 98.19382812 200.58164063 99 201 C99.66 200.67 100.32 200.34 101 200 C101.06796559 184.36686973 101.06352349 168.73444526 101.01245117 153.10125732 C101.0034808 150.30068088 100.99669392 147.50010979 100.99145508 144.69952393 C100.97536634 136.5333021 100.9409021 128.36764701 100.86630154 120.20172977 C100.83329369 116.5518952 100.80868375 112.90246368 100.80471802 109.25247192 C100.79970845 105.13913213 100.75504757 101.02712578 100.70703125 96.9140625 C100.71095886 95.67979019 100.71488647 94.44551788 100.71893311 93.17384338 C100.69371883 86.61117709 100.69371883 86.61117709 97.79077148 80.91796875 C96.86981689 80.28503906 95.9488623 79.65210938 95 79 C94.14438477 78.38560059 93.28876953 77.77120117 92.40722656 77.13818359 C91.49424805 76.56406738 90.58126953 75.98995117 89.640625 75.3984375 C88.61622314 74.7492334 87.59182129 74.1000293 86.53637695 73.43115234 C85.45187256 72.75262207 84.36736816 72.0740918 83.25 71.375 C82.11437763 70.65777558 80.97920911 69.93983207 79.84448242 69.22119141 C77.59162896 67.79484892 75.33713439 66.37124347 73.08154297 64.94921875 C69.13840058 62.45499843 65.22248999 59.92073719 61.3125 57.375 C54.15577487 52.73009385 46.96277413 48.14330784 39.75805664 43.57324219 C34.52786388 40.25366993 29.31140643 36.91422445 24.109375 33.55078125 C22.3858326 32.43881012 20.66206681 31.32718614 18.93823242 30.21566772 C17.27252051 29.13954918 15.60986974 28.0586971 13.94726562 26.9777832 C12.93857422 26.32769287 11.92988281 25.67760254 10.890625 25.0078125 C9.99375977 24.42660645 9.09689453 23.84540039 8.17285156 23.24658203 C6.12837744 21.8341238 6.12837744 21.8341238 4 22 Z M157 56 C150.04858713 60.05023601 143.09937929 64.10422944 136.15185547 68.16113281 C133.33332091 69.80553268 130.51270714 71.44629065 127.69140625 73.0859375 C126.16918365 73.97380888 124.64704203 74.86181912 123.125 75.75 C122.42511963 76.15524902 121.72523926 76.56049805 121.00415039 76.97802734 C118.40891133 78.49631264 116.1358755 79.8641245 114 82 C113.73785064 85.16611509 113.73785064 85.16611509 113.84887695 88.9519043 C113.85673218 89.66983658 113.8645874 90.38776886 113.87268066 91.12745667 C113.9014596 93.52661582 113.94480517 95.92528424 113.98828125 98.32421875 C114.01198102 100.02153929 114.03484857 101.71887163 114.05693054 103.41621399 C114.1181652 107.92732493 114.19195351 112.43815258 114.26794434 116.94903564 C114.32577572 120.50344733 114.37478054 124.05795074 114.42320442 127.61250114 C114.75735552 152.08009599 115.31977528 176.53975568 116 201 C120.34768427 201 121.70864528 200.31519903 125.40234375 198.21875 C126.45220459 197.62739258 127.50206543 197.03603516 128.58374023 196.42675781 C130.24385132 195.4730127 130.24385132 195.4730127 131.9375 194.5 C133.06164307 193.8615918 134.18578613 193.22318359 135.34399414 192.56542969 C148.3909907 185.79074052 148.3909907 185.79074052 160 177 C160.30671996 174.81565567 160.30671996 174.81565567 160.26069641 172.25524902 C160.27132362 170.75353401 160.27132362 170.75353401 160.28216553 169.22148132 C160.27968811 168.11907608 160.27721069 167.01667084 160.2746582 165.88085938 C160.27976913 164.72310501 160.28488007 163.56535065 160.29014587 162.37251282 C160.30409381 158.52953991 160.30308132 154.68674527 160.30078125 150.84375 C160.30368421 148.85524699 160.30659125 146.8667439 160.310188 144.87824202 C160.32129123 138.6243761 160.32171581 132.37057023 160.31567383 126.11669922 C160.30963011 119.65802903 160.32195309 113.19957648 160.3432439 106.74094343 C160.36083628 101.20120078 160.36686508 95.66152756 160.36360615 90.12175798 C160.36178958 86.81065056 160.36576981 83.49973362 160.37832069 80.18864441 C160.39059131 76.49863681 160.38394987 72.80913943 160.37231445 69.11914062 C160.37995819 68.01673538 160.38760193 66.91433014 160.39547729 65.77851868 C160.38495583 64.27680367 160.38495583 64.27680367 160.3742218 62.74475098 C160.37447341 61.43509243 160.37447341 61.43509243 160.37473011 60.09897614 C160.25106917 59.40631401 160.12740824 58.71365189 160 58 C159.01 57.34 158.02 56.68 157 56 Z M-18.2265625 162.8515625 C-19.25910156 163.45613281 -20.29164062 164.06070313 -21.35546875 164.68359375 C-22.97388672 165.64458984 -22.97388672 165.64458984 -24.625 166.625 C-25.68074219 167.24246094 -26.73648438 167.85992187 -27.82421875 168.49609375 C-34.01815486 172.14184301 -40.07507191 175.93120984 -46 180 C-42.98442261 183.2902968 -39.90252862 185.40494001 -36.02734375 187.6015625 C-35.46302139 187.92410004 -34.89869904 188.24663757 -34.317276 188.57894897 C-32.52740425 189.60039289 -30.73269939 190.61295424 -28.9375 191.625 C-26.57050677 192.96941411 -24.20529724 194.31693873 -21.83984375 195.6640625 C-20.26771118 196.55279053 -20.26771118 196.55279053 -18.66381836 197.45947266 C-16.73645228 198.57409826 -14.85252784 199.76498144 -13 201 C-11.68 201 -10.36 201 -9 201 C-8.97532391 195.48242521 -8.95715144 189.96488239 -8.94506836 184.44726562 C-8.94003237 182.56933025 -8.93320329 180.6913988 -8.92456055 178.81347656 C-8.91246287 176.11782868 -8.90676443 173.42223253 -8.90234375 170.7265625 C-8.89718246 169.88380768 -8.89202118 169.04105286 -8.88670349 168.17276001 C-8.76632961 163.95268639 -8.76632961 163.95268639 -10 160 C-13.65144732 160 -15.09404581 161.00951061 -18.2265625 162.8515625 Z " fill="#000276" transform="translate(70,1)"/>
</svg>
